<svg width="109" height="26" viewBox="0 0 109 26" fill="none" xmlns="http://www.w3.org/2000/svg">
<path d="M105.713 19.6332C104.63 19.6332 103.722 19.4305 102.99 19.0253C102.274 18.6045 101.732 18.0278 101.366 17.2952C101 16.5471 100.817 15.6899 100.817 14.7235V4.78732H104.066V14.63C104.066 15.269 104.241 15.7678 104.592 16.1263C104.943 16.4848 105.415 16.664 106.01 16.664C106.346 16.664 106.704 16.6172 107.085 16.5237C107.467 16.4302 107.794 16.2899 108.069 16.1029V19.0721C107.779 19.2435 107.413 19.376 106.971 19.4695C106.544 19.5786 106.125 19.6332 105.713 19.6332ZM108.069 10.5386H98.7355V7.73311H108.069V10.5386Z" fill="white"/>
<path d="M90.4804 19.6098C89.3823 19.6098 88.4139 19.3371 87.5751 18.7915C86.7363 18.2304 86.0729 17.4901 85.5848 16.5705C85.1121 15.6353 84.8757 14.6066 84.8757 13.4844C84.8757 12.3778 85.1426 11.3647 85.6763 10.4451C86.2254 9.50996 86.9574 8.76962 87.8725 8.2241C88.8028 7.663 89.8474 7.38245 91.0065 7.38245C92.1808 7.38245 93.2331 7.65521 94.1634 8.20072C95.0937 8.73065 95.8258 9.45541 96.3595 10.375C96.8933 11.279 97.1602 12.3155 97.1602 13.4844V19.3059H94.0719V15.121L95.0556 14.8404C95.0556 15.7444 94.865 16.5627 94.4837 17.2953C94.1024 18.0122 93.5763 18.5811 92.9052 19.002C92.2342 19.4072 91.4259 19.6098 90.4804 19.6098ZM91.0065 16.5004C91.5708 16.5004 92.0664 16.3679 92.4935 16.1029C92.9357 15.8224 93.2789 15.4561 93.5229 15.0041C93.7822 14.5521 93.9118 14.0533 93.9118 13.5078C93.9118 12.9623 93.7822 12.4635 93.5229 12.0115C93.2789 11.5595 92.9357 11.2011 92.4935 10.9361C92.0664 10.6555 91.5708 10.5153 91.0065 10.5153C90.4575 10.5153 89.9618 10.6555 89.5196 10.9361C89.0925 11.2011 88.7494 11.5595 88.4901 12.0115C88.2461 12.4635 88.1241 12.9623 88.1241 13.5078C88.1241 14.0533 88.2461 14.5521 88.4901 15.0041C88.7494 15.4561 89.0925 15.8224 89.5196 16.1029C89.9618 16.3679 90.4575 16.5004 91.0065 16.5004Z" fill="white"/>
<path d="M77.1572 19.6098C75.7847 19.6098 74.5646 19.3215 73.497 18.7448C72.4447 18.1525 71.6746 17.2952 71.1865 16.173L73.9774 14.7469C74.2214 15.308 74.6103 15.7366 75.1441 16.0328C75.6931 16.3289 76.3642 16.477 77.1572 16.477C77.6453 16.477 78.0723 16.4146 78.4383 16.2899C78.8196 16.1497 79.1246 15.9548 79.3533 15.7055C79.5821 15.4405 79.6965 15.121 79.6965 14.7469C79.6965 14.3105 79.5745 13.9832 79.3305 13.765C79.0865 13.5312 78.7509 13.3597 78.3239 13.2506C77.8969 13.1415 77.4165 13.0402 76.8827 12.9467C76.3032 12.8376 75.6931 12.6973 75.0526 12.5259C74.4273 12.3388 73.8325 12.0739 73.2683 11.731C72.7192 11.3881 72.277 10.9283 71.9414 10.3516C71.6059 9.75932 71.4382 9.02677 71.4382 8.15395C71.4382 7.21878 71.6822 6.39271 72.1702 5.67574C72.6582 4.94319 73.3293 4.3665 74.1833 3.94568C75.0374 3.50926 75.9905 3.29105 77.0428 3.29105C78.3239 3.29105 79.4754 3.58719 80.4972 4.17947C81.519 4.75616 82.2739 5.6056 82.7619 6.72781L79.971 8.15395C79.727 7.6396 79.3457 7.22657 78.8272 6.91484C78.3239 6.60312 77.6834 6.44726 76.9056 6.44726C76.4938 6.44726 76.1278 6.5096 75.8075 6.63429C75.4873 6.75898 75.2356 6.93822 75.0526 7.17202C74.8696 7.40581 74.7781 7.68636 74.7781 8.01367C74.7781 8.4345 74.9077 8.7696 75.167 9.01898C75.4263 9.25277 75.777 9.43201 76.2193 9.5567C76.6768 9.68139 77.1801 9.79829 77.7291 9.90739C78.3087 10.0165 78.9034 10.1646 79.5135 10.3516C80.1388 10.523 80.7107 10.7802 81.2292 11.1231C81.763 11.466 82.1976 11.9258 82.5331 12.5025C82.8687 13.0792 83.0364 13.8195 83.0364 14.7235C83.0364 15.6587 82.7695 16.5004 82.2358 17.2485C81.7172 17.981 81.0157 18.5577 80.1311 18.9786C79.2466 19.3994 78.2553 19.6098 77.1572 19.6098Z" fill="white"/>
<path d="M69.4065 19.3059H65.7692L63.8247 16.103C63.5959 15.7289 63.4206 15.3236 63.2985 14.8872C63.1918 14.4352 63.1384 13.9988 63.1384 13.578C63.1384 13.126 63.1918 12.6818 63.2985 12.2454C63.4206 11.7934 63.5959 11.3725 63.8247 10.9829L65.7463 7.73317H69.4065L66.6842 12.2921C66.3945 12.7753 66.2496 13.1883 66.2496 13.5312C66.2496 13.8897 66.4173 14.3495 66.7529 14.9106L69.4065 19.3059ZM60.073 19.3059H56.4357L59.0893 14.9106C59.4248 14.3495 59.5926 13.8897 59.5926 13.5312C59.5926 13.1883 59.4477 12.7753 59.1579 12.2921L56.4357 7.73317H60.0959L62.0175 10.9829C62.2462 11.3725 62.414 11.7934 62.5208 12.2454C62.6428 12.6818 62.7038 13.126 62.7038 13.578C62.7038 13.9988 62.6428 14.4352 62.5208 14.8872C62.414 15.3236 62.2462 15.7289 62.0175 16.103L60.073 19.3059ZM64.9914 14.9574H61.1253V11.9882H64.9914V14.9574Z" fill="white"/>
<path d="M49.6337 19.6098C48.4594 19.6098 47.3994 19.3526 46.4539 18.8383C45.5236 18.3084 44.7915 17.5836 44.2578 16.664C43.724 15.7288 43.4571 14.6456 43.4571 13.4143C43.4571 12.3077 43.7011 11.2946 44.1891 10.375C44.6924 9.43982 45.3863 8.69947 46.2709 8.15396C47.1554 7.59285 48.1772 7.3123 49.3363 7.3123C50.5411 7.3123 51.5629 7.58506 52.4017 8.13058C53.2405 8.66051 53.881 9.36968 54.3233 10.2581C54.7808 11.1465 55.0096 12.1206 55.0096 13.1805V14.1624H46.0421L46.5454 13.3442C46.5149 13.9988 46.6216 14.5833 46.8657 15.0976C47.1249 15.6119 47.4833 16.0172 47.9408 16.3133C48.4136 16.5939 48.9703 16.7342 49.6108 16.7342C50.2208 16.7342 50.7699 16.5861 51.2579 16.2899C51.7612 15.9938 52.1424 15.5808 52.4017 15.0508L54.8952 16.3367C54.4072 17.381 53.7057 18.1915 52.7906 18.7682C51.8908 19.3293 50.8385 19.6098 49.6337 19.6098ZM46.7284 12.3155H51.7841C51.7383 11.9102 51.601 11.5517 51.3723 11.24C51.1588 10.9127 50.8766 10.6633 50.5259 10.4919C50.1751 10.3048 49.7709 10.2113 49.3134 10.2113C48.8406 10.2113 48.4212 10.3048 48.0552 10.4919C47.7045 10.6789 47.4147 10.9361 47.1859 11.2634C46.9724 11.5751 46.8199 11.9258 46.7284 12.3155Z" fill="white"/>
<path d="M22.2201 10.0479L23.5873 11.4449L24.9545 12.8419L18.9275 18.9971C18.2679 19.6721 17.7516 20.1986 17.3293 20.6109C16.6886 21.24 16.2694 21.6052 15.9098 21.8231C15.0219 22.3593 14.0093 22.6422 12.9779 22.6422C11.9464 22.6422 10.9339 22.3593 10.0459 21.8231C9.44908 21.461 8.54284 20.848 6.87983 19.153C5.21682 17.458 4.61684 16.5277 4.26668 15.9168C3.74089 15.0103 3.46345 13.9758 3.46345 12.922C3.46345 11.8682 3.74089 10.8338 4.26668 9.92724C4.62102 9.31632 5.36943 8.53879 7.03244 6.84273L12.311 1.44271H8.61601L5.17919 4.95016C3.30922 6.86516 2.52945 7.67688 2.0131 8.56549C1.24813 9.88425 0.844482 11.389 0.844482 12.922C0.844482 14.455 1.24813 15.9598 2.0131 17.2786C2.52945 18.1683 3.16288 19.1306 5.03076 21.0413C6.89864 22.952 7.84774 23.5961 8.71217 24.1247C9.98425 24.8948 11.4334 25.3064 12.9119 25.3176C14.3904 25.3289 15.8454 24.9394 17.1286 24.1888C17.1662 24.1675 17.2039 24.1472 17.2404 24.1247C17.8101 23.7798 18.3474 23.3184 19.1763 22.5045C19.6121 22.0773 20.1285 21.5433 20.7745 20.8896L25.4342 16.1283C26.3468 15.1948 26.6102 14.9268 26.8297 14.365C27.2155 13.3761 27.2277 12.276 26.8642 11.2783C26.6551 10.7101 26.4011 10.4356 25.5053 9.48187C24.5719 8.57083 24.3033 8.30702 23.7482 8.09341C22.7723 7.72204 21.6961 7.73422 20.7285 8.12759C20.1766 8.35295 19.9142 8.62103 19.0007 9.5545L12.7605 15.9382L11.3922 14.5412L10.024 13.1442L16.0478 6.98906C16.7084 6.31512 17.2237 5.78751 17.6471 5.37524C18.2868 4.74723 18.7069 4.38196 19.0655 4.16408C19.9534 3.62709 20.9662 3.34378 21.9979 3.34378C23.0297 3.34378 24.0425 3.62709 24.9304 4.16408C25.5262 4.52294 26.3593 5.21504 28.0213 6.91429C29.6832 8.61355 30.3585 9.46371 30.7128 10.0768C31.2392 10.9837 31.517 12.0187 31.517 13.0732C31.517 14.1276 31.2392 15.1626 30.7128 16.0696C30.3585 16.6783 29.6111 17.458 27.9481 19.153L22.6591 24.5573H26.3541L29.7909 21.0456C31.6609 19.1348 32.4406 18.3231 32.957 17.4345C33.7221 16.1156 34.1259 14.6107 34.1259 13.0774C34.1259 11.5442 33.7221 10.0392 32.957 8.72035C32.4406 7.83174 31.7372 6.94633 29.8651 5.03454C27.993 3.12274 27.1276 2.40288 26.2579 1.87526C24.9858 1.10524 23.5367 0.693616 22.0582 0.682359C20.5796 0.671101 19.1246 1.06061 17.8415 1.81118L17.7296 1.87526C17.16 2.21597 16.6279 2.67737 15.7917 3.49121C15.3548 3.91843 14.8395 4.44604 14.1935 5.10609L9.54524 9.86316C8.63168 10.7913 8.37037 11.0594 8.14877 11.6222C7.76299 12.6111 7.7507 13.7112 8.11428 14.7089C8.32333 15.276 8.57838 15.5505 9.47312 16.5053C10.4076 17.4164 10.6762 17.6802 11.2323 17.8938C12.2083 18.2653 13.2846 18.2528 14.252 17.8585C14.8029 17.6332 15.0653 17.3651 15.9778 16.4316L22.2201 10.0479Z" fill="#FF9900"/>
</svg>
