<svg width="33" height="24" viewBox="0 0 33 24" fill="none" xmlns="http://www.w3.org/2000/svg">
<path id="Vector" d="M20.8234 9.29394L22.165 10.5745L23.5067 11.8551L17.5924 17.4973C16.9451 18.1161 16.4384 18.5987 16.024 18.9766C15.3953 19.5533 14.984 19.8881 14.6311 20.0879C13.7597 20.5794 12.7661 20.8387 11.754 20.8387C10.7418 20.8387 9.74816 20.5794 8.8768 20.0879C8.29111 19.756 7.40181 19.194 5.76989 17.6403C4.13796 16.0865 3.5492 15.2338 3.20558 14.6738C2.68962 13.8427 2.41736 12.8945 2.41736 11.9285C2.41736 10.9625 2.68962 10.0143 3.20558 9.18331C3.5533 8.6233 4.28772 7.91056 5.91964 6.35585L11.0995 1.40582H7.47361L4.10104 4.62099C2.26602 6.37641 1.50083 7.12048 0.994121 7.93504C0.243451 9.14391 -0.152649 10.5233 -0.152649 11.9285C-0.152649 13.3338 0.243451 14.7132 0.994121 15.922C1.50083 16.7376 2.12242 17.6197 3.95538 19.3712C5.78835 21.1227 6.7197 21.7131 7.56798 22.1977C8.81629 22.9035 10.2384 23.2809 11.6892 23.2912C13.1401 23.3015 14.5679 22.9445 15.8271 22.2564C15.864 22.2368 15.9009 22.2182 15.9368 22.1977C16.4959 21.8815 17.0231 21.4585 17.8365 20.7125C18.2642 20.3209 18.7709 19.8313 19.4048 19.2322L23.9775 14.8676C24.8729 14.0119 25.1314 13.7662 25.3468 13.2512C25.7254 12.3447 25.7375 11.3363 25.3807 10.4218C25.1755 9.90095 24.9263 9.64934 24.0472 8.77505C23.1313 7.93993 22.8677 7.69811 22.323 7.5023C21.3653 7.16188 20.3093 7.17304 19.3597 7.53363C18.8181 7.74021 18.5606 7.98595 17.6642 8.84163L11.5406 14.6933L10.1979 13.4128L8.85526 12.1322L14.7665 6.48997C15.4148 5.8722 15.9204 5.38855 16.3359 5.01065C16.9636 4.43497 17.3759 4.10014 17.7278 3.90041C18.5991 3.40818 19.5929 3.14847 20.6054 3.14847C21.6179 3.14847 22.6118 3.40818 23.4831 3.90041C24.0678 4.22937 24.8853 4.86379 26.5162 6.42144C28.1471 7.97909 28.8097 8.75841 29.1574 9.32038C29.6739 10.1517 29.9465 11.1005 29.9465 12.0671C29.9465 13.0336 29.6739 13.9824 29.1574 14.8138C28.8097 15.3718 28.0763 16.0865 26.4443 17.6403L21.2542 22.5942H24.8801L28.2527 19.3751C30.0877 17.6236 30.8529 16.8795 31.3596 16.065C32.1105 14.856 32.5067 13.4764 32.5067 12.071C32.5067 10.6655 32.1105 9.28598 31.3596 8.077C30.8529 7.26244 30.1626 6.45081 28.3255 4.69833C26.4885 2.94585 25.6392 2.28598 24.7858 1.80233C23.5375 1.09647 22.1154 0.719155 20.6645 0.708836C19.2136 0.698516 17.7858 1.05557 16.5266 1.74359L16.4169 1.80233C15.8579 2.11465 15.3358 2.53759 14.5152 3.28362C14.0864 3.67524 13.5808 4.15888 12.9469 4.76393L8.38548 9.12457C7.489 9.97536 7.23257 10.2211 7.01511 10.737C6.63654 11.6435 6.62448 12.652 6.98126 13.5665C7.18641 14.0863 7.43669 14.338 8.3147 15.2132C9.2317 16.0483 9.49531 16.2902 10.041 16.486C10.9987 16.8266 12.055 16.815 13.0043 16.4537C13.5449 16.2471 13.8023 16.0013 14.6978 15.1457L20.8234 9.29394Z" fill="#FF9900"/>
</svg>
