<svg width="32" height="32" viewBox="0 0 32 32" fill="none" xmlns="http://www.w3.org/2000/svg">
<g id="github.svg">
<path id="Vector" fill-rule="evenodd" clip-rule="evenodd" d="M16 6C10.475 6 6 10.3588 6 15.7403C6 20.0504 8.8625 23.6908 12.8375 24.9814C13.3375 25.0666 13.525 24.7744 13.525 24.5187C13.525 24.2874 13.5125 23.5203 13.5125 22.7046C11 23.1551 10.35 22.108 10.15 21.5601C10.0375 21.2801 9.55 20.4156 9.125 20.1843C8.775 20.0017 8.275 19.5512 9.1125 19.539C9.9 19.5268 10.4625 20.2452 10.65 20.5374C11.55 22.0106 12.9875 21.5966 13.5625 21.341C13.65 20.7078 13.9125 20.2817 14.2 20.0382C11.975 19.7947 9.65 18.9546 9.65 15.2289C9.65 14.1697 10.0375 13.293 10.675 12.6112C10.575 12.3677 10.225 11.3693 10.775 10.03C10.775 10.03 11.6125 9.77436 13.525 11.0284C14.325 10.8093 15.175 10.6997 16.025 10.6997C16.875 10.6997 17.725 10.8093 18.525 11.0284C20.4375 9.76219 21.275 10.03 21.275 10.03C21.825 11.3693 21.475 12.3677 21.375 12.6112C22.0125 13.293 22.4 14.1575 22.4 15.2289C22.4 18.9668 20.0625 19.7947 17.8375 20.0382C18.2 20.3426 18.5125 20.927 18.5125 21.8401C18.5125 23.1429 18.5 24.19 18.5 24.5187C18.5 24.7744 18.6875 25.0788 19.1875 24.9814C23.1375 23.6908 26 20.0382 26 15.7403C26 10.3588 21.525 6 16 6Z" fill="#595959"/>
</g>
</svg>
