<svg width="32" height="32" viewBox="0 0 32 32" fill="none" xmlns="http://www.w3.org/2000/svg">
<g id="Social icon">
<path id="Subtract" fill-rule="evenodd" clip-rule="evenodd" d="M26 16C26 21.5228 21.5228 26 16 26C10.4772 26 6 21.5228 6 16C6 10.4772 10.4772 6 16 6C21.5228 6 26 10.4772 26 16ZM16.3583 13.3824C15.3857 13.787 13.4417 14.6243 10.5265 15.8944C10.0531 16.0826 9.80517 16.2668 9.78259 16.4469C9.74444 16.7512 10.1256 16.871 10.6445 17.0342C10.7151 17.0564 10.7883 17.0794 10.8632 17.1038C11.3738 17.2698 12.0606 17.4639 12.4177 17.4716C12.7416 17.4786 13.1031 17.3451 13.5022 17.0711C16.2259 15.2325 17.6319 14.3031 17.7202 14.2831C17.7825 14.269 17.8688 14.2512 17.9273 14.3032C17.9857 14.3551 17.98 14.4536 17.9738 14.48C17.936 14.6409 16.4401 16.0317 15.6659 16.7514C15.4245 16.9758 15.2533 17.135 15.2184 17.1713C15.14 17.2527 15.0601 17.3298 14.9833 17.4038C14.5089 17.8611 14.1532 18.204 15.003 18.7639C15.4113 19.033 15.7381 19.2556 16.0641 19.4776C16.4201 19.72 16.7752 19.9618 17.2346 20.263C17.3517 20.3397 17.4635 20.4194 17.5724 20.4971C17.9867 20.7924 18.3589 21.0578 18.8188 21.0155C19.086 20.9909 19.362 20.7396 19.5022 19.9902C19.8335 18.2192 20.4846 14.382 20.6351 12.8008C20.6483 12.6622 20.6317 12.4849 20.6184 12.4071C20.6051 12.3293 20.5773 12.2184 20.4761 12.1363C20.3563 12.0391 20.1713 12.0186 20.0886 12.02C19.7125 12.0266 19.1354 12.2273 16.3583 13.3824Z" fill="#595959"/>
</g>
</svg>
